<svg width="256" height="256" viewBox="0 0 256 256" fill="none" xmlns="http://www.w3.org/2000/svg">
<rect width="256" height="256" fill="#27B5E4"/>
<path d="M227 64.1C235.81 49.52 236.01 40 236.01 40C236.01 40 247.35 75.99 214.21 93.03C194.5 103.179 185.402 104.936 178.207 106.326C173.301 107.273 169.279 108.05 163.38 111.2C148.86 118.94 148.41 129.44 153.78 139.91C159.17 150.39 170.18 150.72 179.5 142.63C188.85 134.51 189.09 121.57 189.09 121.57C189.09 121.57 197.87 142.01 185.39 155.35C172.93 168.71 166.39 171.72 145.89 165.92C125.42 160.13 118.47 161.7 112.29 165.33C106.13 168.99 100.62 176.53 104 182.22C107.36 187.9 111.68 189.6 122.15 183.4C132.62 177.21 138.07 176.56 147.06 176.35C156.1 176.1 166 178.78 172.83 183.31C179.66 187.78 186.61 193.91 186.61 193.91C186.61 193.91 159.82 178.16 143 197.54C126.17 216.89 120.37 216.91 108.36 212.07C106.079 211.158 103.962 210.217 102.006 209.348C98.6187 207.842 95.7143 206.552 93.28 206V205.9L93.26 205.92C93.26 205.92 91.69 208.87 91.81 212.97C91.93 217.07 94.18 219.27 94.18 219.27L94.2468 219.362C94.24 219.348 94.24 219.334 94.24 219.32C96.38 219.73 98.62 219.97 100.48 220.15C106.69 220.76 112.99 223 116.35 228.72C119.73 234.39 118.28 240.36 118.28 240.36C118.28 240.36 105.52 230.24 92.65 236.1C92.6527 236.092 92.6553 236.085 92.6578 236.078C92.6646 236.059 92.67 236.045 92.67 236.03C84.51 239.65 78.26 247.3 77.28 256H0V117.05C22.51 112.86 33.73 109.28 38.51 104.02C43.56 98.45 46.81 87.13 46.81 87.13C46.81 87.13 54.52 96.66 50.46 105.9C47.0469 113.611 46.0851 114.239 40.5311 117.868C39.4296 118.588 38.1476 119.426 36.63 120.46C27.46 126.77 29.49 137.95 36.15 142.12C42.79 146.29 48.84 139.72 55.21 126.56C57.5225 121.767 58.3443 117.066 59.1437 112.494C60.5394 104.51 61.8668 96.9168 70.94 89.91C76.4631 85.6546 81.9907 85.9629 87.9765 86.2967C97.478 86.8266 108.134 87.4209 121.76 69.93C143.98 41.41 171.97 64.83 171.97 64.83C171.97 64.83 140.07 50.99 128.62 78.69C119.131 101.594 114.732 102.629 104.327 105.077C102.143 105.591 99.6951 106.167 96.88 107.02C80.64 111.93 86.42 137.11 106.98 124.1C117.288 117.562 120.613 111.942 123.635 106.834C126.64 101.755 129.345 97.1827 138.32 92.72C150.675 86.5905 159.85 86.3455 168.823 86.1059C172.923 85.9964 176.98 85.888 181.28 85.22C194.96 83.07 218.18 78.73 227 64.1Z" fill="white"/>
</svg>